<?xml version="1.0" encoding="UTF-8" standalone="no"?>
<!DOCTYPE svg PUBLIC "-//W3C//DTD SVG 1.1//EN" "http://www.w3.org/Graphics/SVG/1.1/DTD/svg11.dtd">
<svg width="100%" height="100%" viewBox="0 0 2481 3508" version="1.1" xmlns="http://www.w3.org/2000/svg" xmlns:xlink="http://www.w3.org/1999/xlink" xml:space="preserve" xmlns:serif="http://www.serif.com/" style="fill-rule:evenodd;clip-rule:evenodd;stroke-linecap:round;stroke-linejoin:round;stroke-miterlimit:1.5;">
    <g id="Main-Shape" serif:id="Main Shape" transform="matrix(1,0,0,0.85458,176.533,784.192)">
        <path d="M1016.43,327.122C1053.13,305.932 1096.17,305.932 1132.87,327.122C1248.35,393.797 1506.18,542.656 1633.04,615.899C1677.97,641.834 1706.41,695.366 1706.41,753.981L1706.41,1292.02C1706.41,1350.64 1677.97,1404.17 1633.04,1430.1C1506.18,1503.35 1248.35,1652.21 1132.87,1718.88C1096.17,1740.07 1053.13,1740.07 1016.43,1718.88C900.942,1652.21 643.11,1503.35 516.249,1430.1C471.328,1404.17 442.887,1350.64 442.887,1292.02L442.887,753.981C442.887,695.366 471.328,641.834 516.249,615.899C643.11,542.656 900.942,393.797 1016.43,327.122Z" style="fill:rgb(26,122,230);"/>
        <clipPath id="_clip1">
            <path d="M1016.43,327.122C1053.13,305.932 1096.17,305.932 1132.87,327.122C1248.35,393.797 1506.18,542.656 1633.04,615.899C1677.97,641.834 1706.41,695.366 1706.41,753.981L1706.41,1292.02C1706.41,1350.64 1677.97,1404.17 1633.04,1430.1C1506.18,1503.35 1248.35,1652.21 1132.87,1718.88C1096.17,1740.07 1053.13,1740.07 1016.43,1718.88C900.942,1652.21 643.11,1503.35 516.249,1430.1C471.328,1404.17 442.887,1350.64 442.887,1292.02L442.887,753.981C442.887,695.366 471.328,641.834 516.249,615.899C643.11,542.656 900.942,393.797 1016.43,327.122Z"/>
        </clipPath>
        <g clip-path="url(#_clip1)">
            <g transform="matrix(0.866025,-0.5,0.871376,1.50927,-2043.31,-1811.68)">
                <rect x="146.763" y="1737.16" width="2184.9" height="445.354"/>
            </g>
            <g transform="matrix(0.866025,-0.5,0.5,0.866025,-969.578,-53.1964)">
                <rect x="146.763" y="1737.16" width="2184.9" height="445.354" style="fill:white;stroke:black;stroke-width:25.23px;"/>
            </g>
        </g>
        <path d="M1016.43,327.122C1053.13,305.932 1096.17,305.932 1132.87,327.122C1248.35,393.797 1506.18,542.656 1633.04,615.899C1677.97,641.834 1706.41,695.366 1706.41,753.981L1706.41,1292.02C1706.41,1350.64 1677.97,1404.17 1633.04,1430.1C1506.18,1503.35 1248.35,1652.21 1132.87,1718.88C1096.17,1740.07 1053.13,1740.07 1016.43,1718.88C900.942,1652.21 643.11,1503.35 516.249,1430.1C471.328,1404.17 442.887,1350.64 442.887,1292.02L442.887,753.981C442.887,695.366 471.328,641.834 516.249,615.899C643.11,542.656 900.942,393.797 1016.43,327.122Z" style="fill:none;stroke:black;stroke-width:1.08px;"/>
    </g>
    <g id="Outline" transform="matrix(1,0,0,0.85458,176.533,787.593)">
        <path d="M1016.43,327.122C1053.13,305.932 1096.17,305.932 1132.87,327.122C1248.35,393.797 1506.18,542.656 1633.04,615.899C1677.97,641.834 1706.41,695.366 1706.41,753.981L1706.41,1292.02C1706.41,1350.64 1677.97,1404.17 1633.04,1430.1C1506.18,1503.35 1248.35,1652.21 1132.87,1718.88C1096.17,1740.07 1053.13,1740.07 1016.43,1718.88C900.942,1652.21 643.11,1503.35 516.249,1430.1C471.328,1404.17 442.887,1350.64 442.887,1292.02L442.887,753.981C442.887,695.366 471.328,641.834 516.249,615.899C643.11,542.656 900.942,393.797 1016.43,327.122Z" style="fill:none;stroke:black;stroke-width:26.88px;"/>
    </g>
    <g transform="matrix(0.645792,-0.316056,0,0.551881,512.583,489.336)">
        <text x="354.518px" y="2976.51px" style="font-family:'Phosphate-Solid', 'Phosphate';font-size:626.465px;stroke:black;stroke-width:2.06px;stroke-linecap:butt;stroke-miterlimit:2;">L<tspan x="611.996px 1075.58px " y="2976.51px 2976.51px ">OG</tspan>O</text>
    </g>
    <g transform="matrix(1.65498,0,0,1,-297.081,-109.094)">
        <rect x="547.046" y="2415" width="773.584" height="44.198" style="stroke:black;stroke-width:18.28px;"/>
    </g>
    <g transform="matrix(1.65498,0,0,1,-296.567,-1444.8)">
        <rect x="547.046" y="2415" width="773.584" height="44.198" style="stroke:black;stroke-width:18.28px;"/>
    </g>
</svg>
